<svg xmlns="http://www.w3.org/2000/svg" xmlns:xlink="http://www.w3.org/1999/xlink" version="1.1" x="0px" y="0px" viewBox="0 0 100 100" style="enable-background:new 0 0 100 100;" xml:space="preserve"><path d="M75.497,40.754c0.171,1.055,0.546,2.041,1.079,2.92V75.76h-6.516V50.424H57.385l2.301,3.411l5.816-1.211l1.645,7.901   l-14.607,3.04l-1.645-7.901l4.71-0.98l0.542-4.26h-8.863V75.76h-21.41V43.673c0.534-0.878,0.908-1.864,1.079-2.919   c0.635,3.896,4.015,6.872,8.09,6.872c4.076,0,7.457-2.976,8.091-6.872c0.634,3.896,4.015,6.872,8.09,6.872   c4.076,0,7.456-2.976,8.091-6.872c0.635,3.896,4.015,6.872,8.091,6.872S74.862,44.65,75.497,40.754z M20.17,47.521   c-0.426,0.068-0.863,0.105-1.308,0.105c-4.528,0-8.199-3.671-8.199-8.199L22.08,19.526h58.289l11.418,19.901   c0,4.528-3.672,8.199-8.199,8.199c-0.445,0-0.882-0.037-1.309-0.105V75.76h10.58C97.392,68.235,100,59.423,100,50   c0-27.614-22.387-50-50-50C22.386,0,0,22.386,0,50c0,9.423,2.608,18.236,7.14,25.76h13.03V47.521z M50,100   c14.638,0,27.808-6.292,36.952-16.318H13.048C22.192,93.708,35.361,100,50,100z"/></svg>