<?xml version="1.0" encoding="utf-8"?>
<svg viewBox="0 0 130.966 130.384" xmlns="http://www.w3.org/2000/svg">
  <g>
    <circle style="stroke: rgb(0, 0, 0);" cx="65.267" cy="64.976" r="63.082"/>
    <path d="M 31.662 50.728 C 31.687 50.724 31.727 50.727 31.734 50.713 C 31.956 50.335 32.307 50.295 32.701 50.305 L 34.596 50.309 C 34.869 50.306 34.888 50.298 34.878 50.021 L 34.842 47.084 L 34.839 45.306 C 34.855 44.512 35.237 44.051 35.996 43.824 L 42.635 41.774 C 42.816 41.711 43.007 41.669 43.197 41.635 C 43.908 41.513 44.414 41.889 44.5 42.605 C 44.521 42.796 44.508 42.991 44.508 43.184 L 44.508 49.954 C 44.508 50.307 44.512 50.311 44.876 50.311 L 49.528 50.311 C 49.644 50.311 49.761 50.305 49.874 50.322 C 50.167 50.353 50.398 50.588 50.423 50.882 C 50.434 50.958 50.428 51.036 50.428 51.113 L 50.428 57.726 C 50.428 58.289 50.19 58.522 49.63 58.53 L 49.397 58.53 C 47.926 58.53 46.458 58.529 44.988 58.531 C 44.452 58.532 44.519 58.48 44.518 59.01 L 44.518 70.043 C 44.518 70.3 44.516 70.556 44.572 70.81 C 44.724 71.492 45.128 71.878 45.814 72.018 C 46.463 72.147 47.071 72.036 47.689 71.909 C 48.28 71.775 48.855 71.586 49.409 71.342 L 49.55 71.279 C 50.091 71.07 50.401 71.268 50.426 71.852 L 50.429 72.974 L 50.429 78.195 C 50.429 78.939 50.121 79.406 49.427 79.674 C 48.274 80.122 47.099 80.496 45.895 80.786 C 44.446 81.137 42.981 81.327 41.492 81.224 C 39.755 81.116 38.192 80.554 36.955 79.266 C 36.008 78.28 35.47 77.079 35.17 75.765 C 34.997 75.01 34.921 74.243 34.923 73.466 L 34.914 58.926 C 34.913 58.558 34.911 58.556 34.528 58.555 C 33.909 58.554 33.289 58.541 32.672 58.559 C 32.296 58.57 31.983 58.497 31.774 58.157 C 31.756 58.129 31.709 58.119 31.666 58.1 L 31.666 50.752 L 31.662 50.728 Z" style="fill: rgb(255, 255, 255);"/>
    <path d="M 60.992 38.28 C 61.674 38.367 62.325 38.533 62.939 38.854 C 64.731 39.795 65.77 41.776 65.582 43.795 C 65.349 46.308 63.148 48.474 60.307 48.322 C 57.544 48.174 55.685 45.927 55.558 43.604 C 55.423 41.149 57.073 38.948 59.437 38.395 C 59.595 38.358 59.775 38.406 59.911 38.282 L 60.993 38.282 L 60.992 38.28 Z" style="fill: rgb(255, 255, 255);"/>
    <path d="M 82.772 51.208 L 84.522 50.646 C 87.805 49.889 90.897 50.369 93.766 52.131 C 96.617 53.883 98.533 56.414 99.749 59.499 C 100.39 61.128 100.748 62.823 100.861 64.57 C 101.077 67.93 100.434 71.107 98.797 74.059 C 97.36 76.648 95.363 78.677 92.684 80.007 C 90.694 80.988 88.589 81.367 86.388 81.201 C 85.282 81.114 84.195 80.869 83.159 80.475 C 83.042 80.431 82.942 80.347 82.797 80.374 C 82.716 80.432 82.743 80.517 82.743 80.588 L 82.743 84.763 C 82.743 85.088 82.747 85.081 83.059 85.082 L 84.761 85.082 C 85.293 85.084 85.54 85.316 85.579 85.845 C 85.585 85.935 85.581 86.025 85.581 86.115 L 85.581 92.245 C 85.581 92.425 85.582 92.605 85.531 92.781 C 85.445 93.081 85.228 93.259 84.919 93.279 C 84.843 93.283 84.764 93.28 84.687 93.28 L 70.688 93.28 C 70.572 93.28 70.453 93.291 70.342 93.269 C 70.071 93.219 69.853 92.963 69.817 92.669 C 69.806 92.58 69.812 92.488 69.812 92.398 L 69.812 85.941 C 69.812 85.787 69.797 85.632 69.866 85.487 C 69.977 85.215 70.249 85.046 70.541 85.065 L 72.358 85.065 C 72.679 85.064 72.679 85.061 72.683 84.757 L 72.682 59.014 C 72.682 58.437 72.76 58.502 72.169 58.499 C 71.653 58.495 71.138 58.503 70.622 58.496 C 70.044 58.489 69.811 58.248 69.808 57.664 L 69.808 51.128 C 69.808 50.525 70.052 50.27 70.645 50.269 L 81.899 50.269 C 82.488 50.27 82.671 50.468 82.773 51.21 L 82.772 51.208 Z M 92.401 65.739 C 92.398 64.411 92.197 63.211 91.771 62.068 C 91.393 61.054 90.86 60.137 90.062 59.39 C 89.4 58.77 88.628 58.377 87.719 58.332 C 86.875 58.291 86.128 58.592 85.461 59.096 C 84.649 59.71 84.071 60.502 83.665 61.429 C 82.478 64.111 82.426 66.839 83.424 69.587 C 83.788 70.593 84.348 71.483 85.149 72.208 C 86.556 73.468 88.322 73.523 89.801 72.352 C 90.468 71.82 90.959 71.146 91.348 70.396 C 92.105 68.936 92.411 67.371 92.417 65.739 L 92.401 65.739 Z M 56.537 61.412 C 56.395 61.358 56.278 61.423 56.156 61.46 L 54.673 61.898 C 54.267 62.014 53.923 61.792 53.855 61.376 C 53.834 61.249 53.834 61.119 53.834 60.991 L 53.834 54.957 L 53.845 54.611 C 53.89 54.088 54.078 53.849 54.582 53.697 L 65.563 50.403 C 65.671 50.373 65.76 50.338 65.862 50.325 C 66.224 50.277 66.527 50.509 66.574 50.87 C 66.591 51.011 66.585 51.153 66.585 51.295 L 66.585 72.527 C 66.585 73.084 66.537 73.003 67.052 73.006 L 68.677 73.008 C 69.158 73.014 69.413 73.27 69.415 73.765 L 69.415 80.493 C 69.414 81.008 69.164 81.229 68.599 81.229 L 56.374 81.229 C 55.742 81.229 55.11 81.232 54.479 81.227 C 53.97 81.224 53.721 80.979 53.721 80.466 L 53.721 73.775 C 53.722 73.274 53.984 73.021 54.479 73.018 L 56.104 73.017 C 56.596 73.015 56.545 73.069 56.536 72.592 L 56.536 61.841 C 56.535 61.7 56.555 61.559 56.51 61.424 L 56.537 61.412 Z" style="fill: rgb(255, 255, 255);"/>
  </g>
</svg>